<?xml version="1.0" standalone="no"?>
<!DOCTYPE svg PUBLIC "-//W3C//DTD SVG 20010904//EN"
 "http://www.w3.org/TR/2001/REC-SVG-20010904/DTD/svg10.dtd">
<svg version="1.0" xmlns="http://www.w3.org/2000/svg"
 width="500.000000pt" height="500.000000pt" viewBox="0 0 500.000000 500.000000"
 preserveAspectRatio="xMidYMid meet">

<g transform="translate(0.000000,500.000000) scale(0.100000,-0.100000)"
fill="#000000" stroke="none">
<path d="M2578 3830 c-113 -14 -215 -54 -311 -123 l-48 -35 -52 20 c-115 45
-289 33 -411 -29 -143 -72 -266 -223 -291 -356 -5 -27 -14 -38 -38 -48 -18 -7
-69 -50 -113 -95 -81 -81 -83 -82 -143 -89 -44 -5 -65 -13 -75 -26 -11 -17
-18 -18 -42 -9 -45 17 -169 -14 -207 -52 -29 -28 -30 -32 -24 -96 3 -37 8 -74
12 -83 5 -13 -3 -19 -34 -27 l-41 -10 -9 37 c-6 20 -15 59 -22 86 -20 84 -25
86 -129 56 -36 -11 -117 -33 -180 -51 -138 -37 -157 -46 -176 -82 -19 -37 -17
-70 10 -165 31 -102 40 -119 76 -138 41 -21 50 -20 201 24 74 21 179 49 234
61 55 12 112 30 126 40 15 10 36 16 50 13 42 -8 161 25 190 53 l25 24 12 -60
c23 -127 120 -267 238 -346 61 -39 184 -84 235 -84 17 0 29 -3 27 -7 -29 -56
-48 -105 -53 -138 l-6 -40 31 55 c48 86 95 128 149 136 25 4 55 10 66 14 16 6
34 -3 80 -41 56 -47 222 -139 250 -139 6 0 24 -11 39 -25 l27 -25 245 0 c231
0 245 1 264 20 11 11 20 33 20 50 0 20 7 33 23 41 12 6 45 28 72 49 l51 37 68
-17 c38 -9 64 -20 57 -24 -19 -12 -13 -64 9 -76 41 -22 90 21 69 61 -7 14 3
17 79 22 99 7 94 10 147 -78 28 -46 35 -53 30 -30 -12 53 -27 100 -38 113 -12
15 -17 11 73 58 150 77 278 240 311 399 15 71 15 71 32 57 7 -6 74 -23 148
-37 74 -15 188 -40 253 -56 68 -17 130 -28 144 -24 16 4 28 1 36 -10 16 -22
315 -106 337 -94 16 8 43 92 38 120 -4 25 13 88 25 92 16 6 39 86 34 118 -3
25 -12 28 -258 96 -321 88 -354 94 -405 71 -34 -15 -54 -55 -62 -119 l-6 -50
-41 7 c-23 3 -42 8 -44 9 -2 2 5 44 14 94 16 81 16 93 3 106 -9 9 -75 25 -164
40 l-150 25 -35 42 c-70 87 -135 139 -222 181 -81 39 -88 45 -104 87 -47 122
-190 279 -312 343 -122 64 -275 93 -414 77z m262 -51 c185 -51 341 -180 420
-349 17 -36 35 -72 39 -80 4 -8 33 -24 63 -36 31 -12 77 -36 102 -53 47 -33
146 -130 146 -143 0 -5 -16 -8 -35 -8 -19 0 -35 -5 -35 -10 0 -6 -12 -2 -27 9
-20 15 -57 23 -133 31 -58 6 -116 13 -130 16 -52 10 -60 -9 -81 -180 -12 -104
-15 -165 -9 -176 7 -13 28 -20 75 -25 75 -8 95 2 95 44 0 43 11 49 92 53 l77
3 -1 -37 c0 -45 23 -85 57 -98 14 -5 54 -15 91 -21 l66 -11 -7 -36 c-20 -109
-91 -230 -180 -309 -64 -57 -206 -134 -213 -115 -7 22 -100 82 -165 107 -36
13 -94 27 -129 31 -58 6 -65 4 -86 -18 l-23 -25 80 -6 c84 -7 152 -28 228 -73
45 -26 46 -28 25 -37 -15 -7 -30 -7 -48 2 -15 6 -23 7 -19 1 11 -17 -86 -11
-176 11 -46 12 -88 28 -92 35 -4 8 -17 14 -27 14 -16 0 -20 -7 -20 -37 0 -32
-6 -42 -33 -60 -18 -13 -36 -23 -40 -23 -4 0 -7 34 -7 75 0 63 -3 76 -19 85
-12 6 -116 10 -270 10 -214 0 -252 -2 -265 -16 -13 -12 -16 -38 -16 -120 l0
-104 -52 21 c-79 31 -147 72 -212 129 -35 31 -65 49 -74 46 -10 -2 -28 -7 -42
-11 -25 -6 -25 -6 2 10 41 23 136 45 197 45 l54 0 -23 25 c-28 30 -61 32 -161
9 -50 -11 -90 -29 -135 -60 -52 -36 -73 -44 -108 -44 -107 0 -251 72 -339 170
-51 57 -111 171 -121 233 -7 36 -6 37 16 32 27 -7 164 19 183 35 7 6 20 7 29
4 20 -8 204 14 228 27 9 5 23 16 32 24 14 14 18 14 42 -1 24 -16 38 -17 166
-6 77 6 146 16 152 21 8 7 24 7 47 1 21 -6 61 -6 109 1 41 5 82 9 90 9 8 -1
101 -3 207 -6 249 -6 233 -19 233 187 0 84 -5 159 -10 170 -10 18 -23 19 -215
19 -184 0 -205 -2 -214 -17 -8 -15 -12 -16 -22 -5 -20 19 -188 16 -217 -4 -20
-14 -24 -14 -38 1 -12 12 -27 15 -53 11 -20 -3 -72 -8 -116 -11 -95 -8 -137
-19 -159 -44 -16 -18 -18 -18 -55 1 -36 17 -43 18 -142 3 -57 -8 -126 -18
-154 -21 l-50 -5 43 44 c24 24 67 59 97 78 49 31 56 40 71 89 27 92 72 166
146 235 75 71 132 104 226 130 81 23 223 17 301 -13 l54 -21 48 34 c123 88
234 124 389 124 77 1 125 -5 180 -20z m-597 -630 c38 -17 47 -43 53 -152 7
-98 6 -104 -17 -130 -20 -23 -35 -29 -90 -34 -129 -11 -144 5 -154 157 -6 96
-5 107 13 130 26 32 147 51 195 29z m317 -90 c0 -64 4 -98 10 -94 6 3 10 48
10 101 l0 94 60 0 61 0 -3 -157 -3 -158 -117 -3 c-135 -3 -123 -15 -119 110 2
37 -1 73 -6 80 -5 8 -10 -28 -13 -87 l-5 -100 -60 0 -60 0 -2 150 c-1 82 1
153 3 157 3 4 59 8 125 8 l119 0 0 -101z m-556 40 c4 -28 6 -53 4 -55 -2 -1
-45 -7 -96 -12 -51 -5 -95 -12 -99 -15 -3 -3 -2 -27 1 -52 l7 -45 82 6 c45 4
89 8 97 8 10 1 17 -14 22 -49 4 -27 5 -51 3 -53 -8 -9 -243 -25 -268 -18 -43
10 -56 42 -63 153 -11 161 -18 156 287 182 12 1 18 -12 23 -50z m1349 16 c130
-16 154 -25 167 -61 15 -38 1 -110 -27 -136 -23 -22 -61 -25 -158 -15 -16 2
-21 -7 -28 -52 l-9 -54 -56 7 c-31 4 -57 8 -59 10 -4 3 26 283 33 304 4 15 -6
15 137 -3z m-1718 -28 c23 -19 28 -36 41 -122 15 -107 10 -140 -26 -162 -25
-16 -199 -38 -209 -27 -7 9 -41 247 -41 291 0 18 9 22 78 30 119 15 129 15
157 -10z m2042 -21 c3 -3 -2 -47 -11 -99 -19 -111 -19 -107 -7 -107 5 0 14 33
21 73 22 142 15 130 73 124 28 -4 54 -10 58 -14 10 -10 -25 -232 -40 -262 -18
-32 -48 -44 -100 -36 -151 21 -159 34 -131 205 11 68 22 126 25 130 4 7 103
-5 112 -14z m-2307 12 c0 -2 9 -55 20 -118 11 -63 20 -125 20 -138 0 -40 -40
-68 -115 -81 -77 -14 -115 -5 -133 32 -16 32 -52 251 -43 260 4 4 30 10 58 14
59 6 55 12 74 -110 6 -43 16 -80 20 -83 13 -7 11 19 -6 115 -8 47 -13 86 -11
88 6 7 116 26 116 21z m2573 -54 c20 -6 21 -19 2 -104 -23 -106 -23 -107 41
-120 l56 -12 -7 -36 c-10 -59 -16 -74 -28 -69 -7 2 -56 12 -111 23 -54 10
-100 24 -103 31 -4 10 40 255 53 292 4 13 42 11 97 -5z m-2889 -14 c33 -12 43
-33 65 -141 26 -127 16 -149 -81 -175 -120 -32 -147 -12 -177 128 -29 136 -19
157 85 182 74 18 77 18 108 6z m954 -22 c-3 -21 -10 -24 -78 -30 -83 -7 -90
-5 -90 22 0 16 9 20 53 23 124 8 119 9 115 -15z m2283 -39 l130 -31 -7 -36
c-4 -21 -10 -41 -14 -45 -4 -5 -47 1 -94 12 -97 23 -115 25 -100 13 5 -5 40
-17 77 -27 85 -22 102 -43 92 -112 -7 -51 -49 -103 -82 -103 -10 1 -70 14
-133 29 l-115 29 2 38 c2 21 6 41 11 46 4 4 41 -2 82 -12 41 -11 83 -20 93
-20 35 0 7 17 -47 29 -30 7 -67 22 -82 33 -24 20 -26 26 -21 73 7 68 31 104
75 114 1 1 61 -13 133 -30z m-3595 -36 c42 -185 34 -174 120 -158 l41 7 12
-47 c7 -26 10 -50 7 -52 -2 -3 -55 -17 -116 -33 -79 -20 -113 -25 -115 -17
-19 55 -72 293 -67 299 9 8 70 26 94 27 11 1 20 -9 24 -26z m3954 -63 l95 -27
-1 -37 c-2 -58 -11 -61 -110 -33 -80 23 -107 27 -92 12 3 -3 40 -16 84 -29 43
-13 79 -27 79 -32 -1 -29 -18 -74 -28 -74 -7 0 -41 9 -75 20 -68 21 -96 25
-88 12 3 -5 43 -19 90 -32 48 -14 86 -29 86 -35 0 -30 -23 -86 -33 -82 -7 2
-73 21 -147 42 -74 21 -138 41 -142 44 -6 5 45 200 77 298 3 9 17 8 57 -4 29
-8 96 -28 148 -43z m-4091 13 c15 -52 14 -61 -6 -67 -133 -38 -163 -48 -163
-58 0 -19 23 -88 29 -88 3 0 42 11 86 25 44 14 85 25 91 25 15 0 40 -88 28
-100 -12 -11 -224 -70 -252 -70 -36 0 -59 34 -87 123 -30 101 -32 141 -5 165
21 18 208 79 247 81 17 1 24 -7 32 -36z m19 -115 c-2 -17 -16 -26 -63 -40 -74
-22 -81 -22 -89 -2 -8 22 -9 22 65 44 84 24 91 24 87 -2z"/>
<path d="M2806 3171 c-10 -16 -8 -101 3 -139 8 -27 6 -44 -9 -83 -23 -58 -26
-112 -6 -128 8 -6 72 -16 142 -21 170 -12 181 -2 153 129 -9 41 -8 60 5 99 19
57 23 119 9 133 -15 15 -288 24 -297 10z m131 -26 c9 -3 11 -18 6 -50 -4 -30
-2 -45 6 -45 6 0 11 16 11 38 0 58 9 65 74 57 35 -5 56 -12 56 -20 0 -7 -9
-43 -21 -80 -17 -57 -19 -75 -10 -111 14 -54 14 -101 1 -109 -6 -4 -33 -4 -60
0 l-50 7 0 50 c0 30 -4 47 -10 43 -5 -3 -10 -26 -10 -51 l0 -44 -44 0 c-24 0
-51 3 -60 6 -21 8 -20 48 3 110 19 48 19 55 5 109 -9 32 -13 69 -9 82 5 22 9
24 53 18 26 -4 53 -8 59 -10z"/>
<path d="M2476 2734 c-3 -9 -6 -54 -6 -100 l0 -85 28 3 c27 3 27 4 30 80 4 78
-7 118 -32 118 -8 0 -17 -7 -20 -16z"/>
<path d="M2452 2498 c-7 -7 -12 -34 -12 -60 l0 -48 55 0 55 0 0 44 c0 66 -7
76 -49 76 -20 0 -42 -5 -49 -12z"/>
<path d="M2092 2248 c2 -35 7 -43 23 -43 17 0 20 7 20 40 0 34 -3 40 -23 43
-22 3 -23 0 -20 -40z"/>
<path d="M2159 3055 c-9 -15 2 -125 12 -125 10 0 10 26 1 90 -4 25 -10 41 -13
35z"/>
<path d="M3330 3010 c0 -5 16 -10 35 -10 19 0 35 5 35 10 0 6 -16 10 -35 10
-19 0 -35 -4 -35 -10z"/>
<path d="M1535 2948 c8 -65 11 -76 21 -65 10 9 -7 127 -18 127 -6 0 -7 -23 -3
-62z"/>
<path d="M970 2898 c0 -12 16 -77 26 -107 2 -8 7 -11 10 -8 8 8 -17 127 -27
127 -5 0 -9 -6 -9 -12z"/>
<path d="M1876 2184 c-23 -22 -20 -57 8 -83 23 -22 25 -22 50 -6 28 18 34 52
16 86 -13 23 -53 25 -74 3z"/>
<path d="M1762 2078 c-13 -13 -15 -37 -6 -62 4 -11 19 -16 49 -16 34 0 46 5
58 24 15 22 14 25 -7 45 -24 23 -75 28 -94 9z"/>
<path d="M1964 2066 c-28 -24 -29 -24 -10 -45 14 -15 31 -21 62 -21 39 0 44 3
50 27 15 59 -50 84 -102 39z"/>
<path d="M2918 2066 c-14 -31 -5 -53 27 -68 21 -9 28 -8 45 7 39 35 20 85 -32
85 -20 0 -32 -7 -40 -24z"/>
<path d="M3172 2078 c-7 -7 -12 -24 -12 -40 0 -50 66 -62 91 -17 23 43 -44 92
-79 57z"/>
<path d="M1889 1987 c-23 -17 -32 -53 -19 -77 12 -23 58 -28 78 -8 18 18 14
63 -6 81 -22 20 -31 21 -53 4z"/>
<path d="M1637 1980 c-9 -25 -89 -319 -114 -423 -21 -85 -23 -105 -13 -151 30
-146 153 -223 275 -172 50 21 127 103 157 166 48 104 44 106 -41 22 -81 -80
-172 -137 -208 -130 -33 6 -44 47 -39 143 3 50 8 101 11 115 16 57 -36 -36
-56 -104 -15 -47 -24 -64 -30 -55 -21 33 -8 129 42 313 47 175 50 193 39 231
-7 22 -14 45 -15 50 -1 6 -5 3 -8 -5z"/>
<path d="M3342 1950 c-17 -57 -17 -58 38 -255 47 -168 58 -240 44 -292 -8 -28
-24 -20 -24 10 0 23 -67 173 -75 166 -2 -2 3 -31 11 -64 25 -109 15 -192 -27
-218 -35 -22 -108 20 -205 118 -84 84 -91 88 -79 54 37 -105 110 -199 180
-230 45 -21 110 -24 152 -8 40 15 92 67 114 114 34 73 26 143 -47 404 -36 130
-66 237 -68 238 -1 1 -7 -16 -14 -37z"/>
<path d="M2147 1966 c-47 -17 -64 -32 -83 -69 -36 -68 -7 -169 56 -202 41 -21
118 -19 157 5 85 51 91 178 11 242 -42 35 -90 43 -141 24z m126 -66 c41 -45
38 -101 -7 -146 -44 -44 -92 -46 -136 -6 -61 54 -49 145 23 178 44 19 87 10
120 -26z"/>
<path d="M2150 1880 c-41 -41 -10 -110 49 -110 34 0 61 30 61 67 0 30 -34 63
-65 63 -14 0 -34 -9 -45 -20z"/>
<path d="M2730 1958 c-101 -52 -109 -182 -14 -254 63 -48 156 -31 208 39 29
39 29 124 0 164 -22 31 -97 73 -129 73 -11 0 -41 -10 -65 -22z m115 -34 c36
-17 69 -79 59 -111 -19 -61 -56 -93 -106 -93 -38 0 -85 35 -98 74 -16 49 2
101 44 127 38 23 58 24 101 3z"/>
<path d="M2755 1875 c-28 -27 -30 -37 -14 -68 16 -29 28 -37 60 -37 32 0 59
28 59 61 0 30 -9 43 -37 58 -31 16 -41 14 -68 -14z"/>
<path d="M3052 1968 c-20 -20 -15 -66 8 -78 44 -24 93 27 70 71 -12 22 -59 26
-78 7z"/>
<path d="M2386 1942 c-8 -13 11 -35 23 -28 16 10 14 36 -3 36 -8 0 -17 -4 -20
-8z"/>
<path d="M2482 1934 c4 -21 22 -23 26 -1 2 10 -3 17 -13 17 -10 0 -15 -6 -13
-16z"/>
<path d="M2566 1941 c-7 -11 18 -33 27 -24 4 3 7 12 7 20 0 15 -26 18 -34 4z"/>
<path d="M2433 1888 c2 -7 10 -13 17 -13 7 0 15 6 18 13 2 7 -5 12 -18 12 -13
0 -20 -5 -17 -12z"/>
<path d="M2520 1885 c0 -10 7 -15 18 -13 21 4 19 22 -2 26 -10 2 -16 -3 -16
-13z"/>
<path d="M2470 1806 c-28 -35 11 -93 48 -70 35 22 22 84 -18 84 -10 0 -23 -7
-30 -14z"/>
<path d="M2135 1596 c-47 -21 -74 -57 -104 -139 -52 -140 -120 -228 -204 -269
l-42 -19 48 5 c104 12 191 108 242 266 21 66 56 107 104 120 20 5 165 10 326
10 376 0 366 3 429 -163 13 -35 35 -82 49 -104 48 -75 133 -133 194 -133 27 1
26 2 -12 21 -84 42 -140 114 -194 252 -38 94 -64 131 -107 152 -44 21 -682 22
-729 1z"/>
</g>
</svg>
